<svg xmlns="http://www.w3.org/2000/svg" width="18" height="15" viewBox="0 0 18 15">
  <path id="iconmonstr-media-control-42" d="M1.5,5.75H0V4.25H1.5A6.084,6.084,0,0,1,6.617,6.391a14.707,14.707,0,0,0-.791,1.454A4.6,4.6,0,0,0,1.5,5.75Zm12,7.5a4.517,4.517,0,0,1-4.259-2.09,14.36,14.36,0,0,1-.8,1.453A5.986,5.986,0,0,0,13.5,14.75V17L18,14l-4.5-3Zm0-7.5V8L18,5,13.5,2V4.25c-4.375,0-5.577,2.612-6.638,4.917C5.855,11.358,4.984,13.25,1.5,13.25H0v1.5H1.5c4.446,0,5.657-2.633,6.726-4.957C9.224,7.623,10.085,5.75,13.5,5.75Z" transform="translate(0 -2)" fill="#30bfa7"/>
</svg>
