<svg xmlns="http://www.w3.org/2000/svg" width="20" height="20" viewBox="0 0 20 20">
  <path id="iconmonstr-calendar-6" d="M20,1.667V20H0V1.667H2.5V2.5a1.667,1.667,0,0,0,3.333,0V1.667h8.333V2.5a1.667,1.667,0,0,0,3.333,0V1.667Zm-1.667,5H1.667V18.333H18.333ZM16.667.833A.833.833,0,1,0,15,.833V2.5a.833.833,0,1,0,1.667,0ZM5,2.5a.833.833,0,0,1-1.667,0V.833A.833.833,0,0,1,5,.833Zm.833,9.774.713-.659a13.77,13.77,0,0,1,2.3,1.378,19.894,19.894,0,0,1,5.088-4.359l.232.533a22.626,22.626,0,0,0-4.972,6.666A35.661,35.661,0,0,0,5.833,12.274Z" fill="#999"/>
</svg>
