<svg xmlns="http://www.w3.org/2000/svg" width="27.334" height="20" viewBox="0 0 27.334 20">
  <g id="icon-menu-sineup" transform="translate(-114 -214)">
    <path id="pasi" d="M10,1.667A4.167,4.167,0,1,1,5.833,5.834,4.172,4.172,0,0,1,10,1.667ZM10,0a5.834,5.834,0,1,0,5.833,5.834A5.834,5.834,0,0,0,10,0Zm5.308,11.128a7.548,7.548,0,0,1-1.382,1.085,10.651,10.651,0,0,1,4.143,6.122H1.913A10.309,10.309,0,0,1,6.057,12.2a7.507,7.507,0,0,1-1.382-1.093A12.256,12.256,0,0,0,0,20H20A12.52,12.52,0,0,0,15.308,11.128Z" transform="translate(114 214)" fill="#999"/>
    <path id="パス_208" data-name="パス 208" d="M145.182,142.9h-1.016a.191.191,0,0,1-.191-.191v-1.016a.191.191,0,0,0-.191-.191h-.7a.191.191,0,0,0-.191.191v1.016a.191.191,0,0,1-.191.191h-1.016a.191.191,0,0,0-.191.191v.7a.191.191,0,0,0,.191.191H142.7a.191.191,0,0,1,.191.191v1.016a.191.191,0,0,0,.191.191h.7a.191.191,0,0,0,.191-.191v-1.016a.191.191,0,0,1,.191-.191h1.016a.191.191,0,0,0,.191-.191v-.7A.191.191,0,0,0,145.182,142.9Z" transform="translate(-6.435 80.562)" fill="#999"/>
    <path id="パス_209" data-name="パス 209" d="M4.334,0A4.334,4.334,0,1,0,8.668,4.334,4.334,4.334,0,0,0,4.334,0Zm0,7.584a3.25,3.25,0,1,1,3.25-3.25A3.254,3.254,0,0,1,4.334,7.584Z" transform="translate(132.666 219.666)" fill="#999"/>
  </g>
</svg>
