<svg xmlns="http://www.w3.org/2000/svg" width="17" height="18" viewBox="0 0 17 18">
  <path id="icon-search" d="M16.5,15.043,12.945,11.31a7.6,7.6,0,0,0,1.087-3.938A7.209,7.209,0,0,0,7.015,0,7.208,7.208,0,0,0,0,7.372a7.209,7.209,0,0,0,7.016,7.372A6.718,6.718,0,0,0,10.6,13.707l3.584,3.766C15.716,19.079,18.028,16.651,16.5,15.043ZM2.175,7.372A4.975,4.975,0,0,1,7.016,2.286a4.974,4.974,0,0,1,4.841,5.086,4.974,4.974,0,0,1-4.841,5.086A4.975,4.975,0,0,1,2.175,7.372ZM3.61,6.049a3.7,3.7,0,0,1,7.083.562A4.834,4.834,0,0,0,3.61,6.049Z" fill="#30bfa7"/>
</svg>
