<?xml version="1.0" encoding="UTF-8" standalone="no"?><!DOCTYPE svg PUBLIC "-//W3C//DTD SVG 1.1//EN" "http://www.w3.org/Graphics/SVG/1.1/DTD/svg11.dtd"><svg width="100%" height="100%" viewBox="0 0 20 19" version="1.1" xmlns="http://www.w3.org/2000/svg" xmlns:xlink="http://www.w3.org/1999/xlink" xml:space="preserve" xmlns:serif="http://www.serif.com/" style="fill-rule:evenodd;clip-rule:evenodd;stroke-linejoin:round;stroke-miterlimit:2;"><path id="iconmonstr-speech-bubble-4" d="M10,1.667c4.595,0 8.333,2.993 8.333,6.672c0,4.1 -4.287,6.634 -8.258,6.634c-1.239,-0.019 -2.47,-0.199 -3.662,-0.537c-1.09,0.708 -2.295,1.221 -3.56,1.517c0.441,-1.13 0.612,-2.347 0.5,-3.554c-1.067,-1.083 -1.672,-2.54 -1.687,-4.06c0.001,-3.679 3.734,-6.672 8.334,-6.672Zm0,-1.667c-5.282,0 -10,3.522 -10,8.339c0.004,1.713 0.608,3.372 1.706,4.687c-0.167,1.867 -0.734,3.677 -1.661,5.307c2.307,-0.377 4.547,-1.089 6.648,-2.113c1.107,0.274 2.242,0.415 3.382,0.419c5.9,0 9.925,-4.031 9.925,-8.3c0,-4.839 -4.751,-8.339 -10,-8.339Zm-2.917,8.333c0,0.686 -0.564,1.25 -1.25,1.25c-0.686,0 -1.25,-0.564 -1.25,-1.25c0,-0.686 0.564,-1.25 1.25,-1.25c0,0 0.001,0 0.001,0c0.685,0 1.249,0.564 1.249,1.249c0,0 0,0.001 0,0.001Zm2.917,-1.25c-0.686,0 -1.25,0.564 -1.25,1.25c0,0.686 0.564,1.25 1.25,1.25c0.686,0 1.25,-0.564 1.25,-1.25c0,-0.686 -0.564,-1.25 -1.25,-1.25Zm4.166,0c-0.686,0 -1.25,0.564 -1.25,1.25c0,0.686 0.564,1.25 1.25,1.25c0.686,0 1.25,-0.564 1.25,-1.25c0,-0.686 -0.564,-1.25 -1.25,-1.25Z" style="fill:#fff;fill-rule:nonzero;"/></svg>