<svg xmlns="http://www.w3.org/2000/svg" width="71" height="74" viewBox="0 0 71 74">
  <g id="icon-gasoline" transform="translate(-10 -440)">
    <rect id="長方形_1574" data-name="長方形 1574" width="71" height="74" transform="translate(10 440)" fill="#fff"/>
    <g id="icon" transform="translate(-263.417 356)">
      <circle id="楕円形_31" data-name="楕円形 31" cx="25" cy="25" r="25" transform="translate(284.417 84)" fill="#30bfa7"/>
      <path id="パス_44" data-name="パス 44" d="M336.173,106.1a.653.653,0,0,0,.27-.823l-1.824-4.476a.685.685,0,0,0-.811-.389l-.1.029c-.217-.3-.439-.594-.679-.875a12.829,12.829,0,0,0-2.14-2V99.8a11.728,11.728,0,0,1,1.058,1.249.657.657,0,0,0-.13.711l1.825,4.476a.678.678,0,0,0,.691.4,14.987,14.987,0,0,1,.253,2.747,13.692,13.692,0,0,1-3.7,9.583v2.242a12.829,12.829,0,0,0,2.14-2,15.081,15.081,0,0,0,3.5-9.826A16.059,16.059,0,0,0,336.173,106.1Z" transform="translate(-7.746 -2.26)" fill="#fff"/>
      <rect id="長方形_47" data-name="長方形 47" width="25.234" height="33.85" transform="translate(296.417 92.508)" fill="#fff"/>
      <rect id="長方形_48" data-name="長方形 48" width="28.113" height="2.909" transform="translate(295.055 123.274)" fill="#fff"/>
      <text id="ガソ_リン" data-name="ガソ
リン" transform="translate(300.417 105.38)" fill="#30bfa7" font-size="9" font-family="HiraginoSans-W3, Hiragino Sans"><tspan x="0" y="0">ガソ</tspan><tspan y="0" font-family="Helvetica"></tspan><tspan x="0" y="10">リン</tspan></text>
    </g>
    <text id="レギュラー" transform="translate(46 507)" fill="#30bfa7" font-size="12" font-family="HiraKakuPro-W3, Hiragino Kaku Gothic Pro"><tspan x="-29.82" y="0">レギュラー</tspan></text>
  </g>
</svg>
