<?xml version="1.0" encoding="UTF-8" standalone="no"?><!DOCTYPE svg PUBLIC "-//W3C//DTD SVG 1.1//EN" "http://www.w3.org/Graphics/SVG/1.1/DTD/svg11.dtd"><svg width="100%" height="100%" viewBox="0 0 24 13" version="1.1" xmlns="http://www.w3.org/2000/svg" xmlns:xlink="http://www.w3.org/1999/xlink" xml:space="preserve" xmlns:serif="http://www.serif.com/" style="fill-rule:evenodd;clip-rule:evenodd;stroke-linejoin:round;stroke-miterlimit:2;"><path id="iconmonstr-car-1" d="M21.739,4.921c-1.347,-0.39 -1.885,-0.538 -3.552,-0.921c0,0 -2.379,-2.359 -2.832,-2.816c-0.714,-0.873 -1.829,-1.321 -2.949,-1.184l-7.894,0c-0.511,0 -0.736,0.547 -0.07,1c-0.786,0.637 -1.54,1.314 -2.258,2.027c-1.435,1.455 -2.184,2.385 -2.184,4.255c0,1.76 1.042,3.718 3.174,3.718l0.01,0c0.416,1.195 1.55,2.001 2.816,2.001c1.266,0 2.4,-0.806 2.816,-2.001l6.367,0c0.416,1.195 1.55,2.001 2.816,2.001c1.266,0 2.4,-0.806 2.816,-2.001l0.685,0c1.994,0 2.5,-1.776 2.5,-3.165c0.149,-1.412 -0.856,-2.707 -2.261,-2.914Zm-15.739,6.279c-0.658,0 -1.2,-0.542 -1.2,-1.2c0,-0.658 0.542,-1.2 1.2,-1.2c0.658,0 1.2,0.542 1.2,1.2c0,0.658 -0.542,1.2 -1.2,1.2Zm3.576,-6.2c-1.768,0.024 -3.529,-0.229 -5.219,-0.75c0.578,-0.75 1,-1.222 1.27,-1.536c0.394,-0.45 0.963,-0.711 1.561,-0.714l2.388,0l0,3Zm1,-3l1.835,0c0.802,0.053 1.542,0.455 2.022,1.1c0.452,0.466 1.732,1.9 1.732,1.9l-5.588,0l0,-3l-0.001,0Zm7.424,9.2c-0.658,0 -1.2,-0.542 -1.2,-1.2c0,-0.658 0.542,-1.2 1.2,-1.2c0.658,0 1.2,0.542 1.2,1.2c0,0.658 -0.542,1.2 -1.2,1.2Z" style="fill:#fff;fill-rule:nonzero;"/></svg>