<svg xmlns="http://www.w3.org/2000/svg" width="16" height="12" viewBox="0 0 16 12">
  <path id="icon-car" d="M15.667,5.667A.333.333,0,0,1,16,6v.341c0,.529-.617.659-1.077.659L14.2,5.667ZM14.706,8a4.8,4.8,0,0,1,.631,2.444,6.628,6.628,0,0,1-.67,2.654v1.231A.667.667,0,0,1,14,15H13a.667.667,0,0,1-.667-.667v-.667H3.667v.667A.667.667,0,0,1,3,15H2a.667.667,0,0,1-.667-.667V13.1a6.628,6.628,0,0,1-.67-2.654A4.8,4.8,0,0,1,1.294,8c.553-1.025,1.234-2.3,1.953-3.5.552-.921.841-1.138,1.519-1.259A17.261,17.261,0,0,1,8,3a17.261,17.261,0,0,1,3.234.243c.677.121.967.338,1.519,1.259C13.472,5.7,14.153,6.979,14.706,8ZM4,10a1,1,0,1,0-1,1A1,1,0,0,0,4,10Zm6.667.667a.333.333,0,0,0-.333-.333H5.667a.333.333,0,1,0,0,.667h4.667A.333.333,0,0,0,10.667,10.667Zm1.961-3.685A13.436,13.436,0,0,0,11.54,4.887a.891.891,0,0,0-.579-.377A15.857,15.857,0,0,0,8,4.271a15.857,15.857,0,0,0-2.961.239.887.887,0,0,0-.579.377A13.4,13.4,0,0,0,3.373,6.982,27.837,27.837,0,0,0,8,7.313,27.837,27.837,0,0,0,12.627,6.982ZM14,10a1,1,0,1,0-1,1A1,1,0,0,0,14,10ZM1.8,5.667H.333A.333.333,0,0,0,0,6v.341C0,6.869.617,7,1.077,7Z" transform="translate(0 -3)" fill="#30bfa7"/>
</svg>
