<svg xmlns="http://www.w3.org/2000/svg" width="24" height="13" viewBox="0 0 24 13">
  <path id="iconmonstr-car-1" d="M21.739,10.921c-1.347-.39-1.885-.538-3.552-.921,0,0-2.379-2.359-2.832-2.816A3.293,3.293,0,0,0,12.406,6H4.512c-.511,0-.736.547-.07,1A30.019,30.019,0,0,0,2.184,9.027C.749,10.482,0,11.412,0,13.282,0,15.042,1.042,17,3.174,17h.01a2.982,2.982,0,0,0,5.632,0h6.367a2.982,2.982,0,0,0,5.632,0H21.5c1.994,0,2.5-1.776,2.5-3.165A2.663,2.663,0,0,0,21.739,10.921ZM6,17.2A1.2,1.2,0,1,1,7.2,16,1.2,1.2,0,0,1,6,17.2ZM9.576,11a16.914,16.914,0,0,1-5.219-.75c.578-.75,1-1.222,1.27-1.536A2.09,2.09,0,0,1,7.188,8H9.576Zm1-3h1.835A2.748,2.748,0,0,1,14.433,9.1c.452.466,1.732,1.9,1.732,1.9H10.577V8ZM18,17.2A1.2,1.2,0,1,1,19.2,16,1.2,1.2,0,0,1,18,17.2Z" transform="translate(0 -6)" fill="#30bfa7"/>
</svg>
