<svg xmlns="http://www.w3.org/2000/svg" width="71" height="74" viewBox="0 0 71 74">
  <g id="icon-MT" transform="translate(-81 -524)">
    <rect id="長方形_1581" data-name="長方形 1581" width="71" height="74" transform="translate(81 524)" fill="#fff"/>
    <g id="icon" transform="translate(630.283 -916)">
      <path id="パス_205" data-name="パス 205" d="M25,0A25,25,0,1,1,0,25,25,25,0,0,1,25,0Z" transform="translate(-538.283 1441)" fill="#30bfa7"/>
      <g id="グループ_1781" data-name="グループ 1781" transform="translate(-529.117 1449.75)">
        <line id="線_6" data-name="線 6" y2="30" transform="translate(1.667 2.5)" fill="none" stroke="#fff" stroke-miterlimit="10" stroke-width="1"/>
        <line id="線_7" data-name="線 7" y2="15" transform="translate(31.25 17.083)" fill="none" stroke="#fff" stroke-miterlimit="10" stroke-width="1"/>
        <line id="線_8" data-name="線 8" y2="30" transform="translate(11.528 2.5)" fill="none" stroke="#fff" stroke-miterlimit="10" stroke-width="1"/>
        <line id="線_9" data-name="線 9" y2="30" transform="translate(21.389 2.5)" fill="none" stroke="#fff" stroke-miterlimit="10" stroke-width="1"/>
        <line id="線_10" data-name="線 10" x2="30" transform="translate(1.25 17.5)" fill="none" stroke="#fff" stroke-miterlimit="10" stroke-width="1"/>
        <circle id="楕円形_29" data-name="楕円形 29" cx="1.667" cy="1.667" r="1.667" transform="translate(0 0)" fill="#fff"/>
      </g>
      <circle id="楕円形_48" data-name="楕円形 48" cx="10" cy="10" r="10" transform="translate(-523.283 1456)" fill="#fff"/>
      <text id="M" transform="translate(-518.638 1471.322)" fill="#30bfa7" font-size="14" font-family="AvenirNextCondensed-Regular, Avenir Next Condensed"><tspan x="0" y="0">M</tspan></text>
    </g>
    <text id="MT" transform="translate(117 591)" fill="#30bfa7" font-size="12" font-family="HiraKakuPro-W3, Hiragino Kaku Gothic Pro"><tspan x="-9.564" y="0">MT</tspan></text>
  </g>
</svg>
