<svg xmlns="http://www.w3.org/2000/svg" width="18" height="16" viewBox="0 0 18 16">
  <path id="iconmonstr-id-card-14" d="M10.5,13.8v.293H3v-.3c0-.809.033-1.271.993-1.486,1.052-.236,2.09-.446,1.592-1.339C4.1,8.318,5.162,6.818,6.75,6.818c1.558,0,2.641,1.444,1.167,4.145-.485.887.516,1.1,1.591,1.339C10.471,12.518,10.5,12.983,10.5,13.8ZM15,6.818H12V8.273h3Zm0,2.909H12v1.455h3Zm0,2.909H12v1.455h3ZM12,3.909V5.364h4.5V15.545H1.5V5.364H6V3.909H0V17H18V3.909ZM7.5,1V5.364h3V1ZM9,3.909a.728.728,0,1,1,.75-.727A.739.739,0,0,1,9,3.909Z" transform="translate(0 -1)" fill="#30bfa7"/>
</svg>
