<svg xmlns="http://www.w3.org/2000/svg" width="71" height="74" viewBox="0 0 71 74">
  <g id="icon-handle-R" transform="translate(-10 -608)">
    <rect id="長方形_1584" data-name="長方形 1584" width="71" height="74" transform="translate(10 608)" fill="#fff"/>
    <g id="icon" transform="translate(646 -917)">
      <g id="グループ_1778" data-name="グループ 1778" transform="translate(-625 1526)">
        <circle id="楕円形_23" data-name="楕円形 23" cx="25" cy="25" r="25" transform="translate(0 0)" fill="#30bfa7"/>
        <path id="パス_40" data-name="パス 40" d="M311.917,287a12.5,12.5,0,1,1,8.838-3.661A12.418,12.418,0,0,1,311.917,287Zm-9.22-11.157a.626.626,0,0,0-.613.757,9.99,9.99,0,0,0,7.11,7.58.617.617,0,0,0,.168.023.627.627,0,0,0,.627-.653l-.138-3.323a.629.629,0,0,0-.342-.533,6.1,6.1,0,0,1-1.913-1.547l-1.464-1.753c-.054-.064-.108-.13-.158-.2a.627.627,0,0,0-.467-.239l-2.783-.116Zm18.44,0h-.026l-2.783.116a.627.627,0,0,0-.467.239c-.051.065-.1.131-.158.2l-1.464,1.753a6.088,6.088,0,0,1-1.913,1.547.63.63,0,0,0-.343.533l-.138,3.323a.627.627,0,0,0,.627.653.612.612,0,0,0,.168-.023,9.991,9.991,0,0,0,7.11-7.58.626.626,0,0,0-.613-.757Zm-9.22-11.395a10.051,10.051,0,0,0-9.492,6.735.627.627,0,0,0,.592.833h.027l2.569-.107a.621.621,0,0,0,.3-.093,5.02,5.02,0,0,1,2.635-.6h6.733a5.02,5.02,0,0,1,2.635.6.622.622,0,0,0,.3.093l2.569.107h.027a.627.627,0,0,0,.592-.833A10.051,10.051,0,0,0,311.917,264.448Z" transform="translate(-286.917 -255.333)" fill="#fff"/>
        <g id="グループ_64" data-name="グループ 64" transform="translate(25.085 32.831)">
          <path id="パス_41" data-name="パス 41" d="M328.044,293.4l-1.147,1.147L329.352,297h-6.677v1.624h6.677L326.9,301.08l1.147,1.148,4.415-4.415Z" transform="translate(-315.878 -293.397)" fill="#fff"/>
          <rect id="長方形_43" data-name="長方形 43" width="2.559" height="1.624" transform="translate(2.854 3.603)" fill="#fff"/>
          <rect id="長方形_44" data-name="長方形 44" width="1.348" height="1.624" transform="translate(0 3.603)" fill="#fff"/>
        </g>
      </g>
    </g>
    <text id="右ハンドル" transform="translate(46 675)" fill="#30bfa7" font-size="12" font-family="HiraKakuPro-W3, Hiragino Kaku Gothic Pro"><tspan x="-29.76" y="0">右ハンドル</tspan></text>
  </g>
</svg>
