<?xml version="1.0" encoding="UTF-8" standalone="no"?><!DOCTYPE svg PUBLIC "-//W3C//DTD SVG 1.1//EN" "http://www.w3.org/Graphics/SVG/1.1/DTD/svg11.dtd"><svg width="100%" height="100%" viewBox="0 0 17 18" version="1.1" xmlns="http://www.w3.org/2000/svg" xmlns:xlink="http://www.w3.org/1999/xlink" xml:space="preserve" xmlns:serif="http://www.serif.com/" style="fill-rule:evenodd;clip-rule:evenodd;stroke-linejoin:round;stroke-miterlimit:2;"><path id="icon-search" d="M16.5,15.043l-3.555,-3.733c0.715,-1.189 1.091,-2.551 1.087,-3.938c0.091,-3.944 -3.073,-7.268 -7.017,-7.372c-3.944,0.105 -7.106,3.428 -7.015,7.372c-0.091,3.944 3.072,7.267 7.016,7.372c1.268,0 2.511,-0.36 3.584,-1.037l3.584,3.766c1.532,1.606 3.844,-0.822 2.316,-2.43Zm-14.325,-7.671c-0.062,-2.721 2.12,-5.013 4.841,-5.086c2.721,0.072 4.903,2.365 4.841,5.086c0.062,2.721 -2.12,5.014 -4.841,5.086c-2.721,-0.073 -4.903,-2.365 -4.841,-5.086Zm1.435,-1.323c0.544,-1.434 1.926,-2.388 3.46,-2.388c1.748,0 3.269,1.238 3.623,2.95c-0.916,-1.165 -2.319,-1.847 -3.801,-1.847c-1.216,0 -2.389,0.459 -3.282,1.285Z" style="fill:#fff;fill-rule:nonzero;"/></svg>