<svg xmlns="http://www.w3.org/2000/svg" width="71" height="74" viewBox="0 0 71 74">
  <g id="icon-handle-L" transform="translate(-81 -608)">
    <rect id="長方形_1586" data-name="長方形 1586" width="71" height="74" transform="translate(81 608)" fill="#fff"/>
    <g id="icon" transform="translate(630.283 -917)">
      <g id="グループ_1779" data-name="グループ 1779" transform="translate(-538.283 1526)">
        <circle id="楕円形_24" data-name="楕円形 24" cx="25" cy="25" r="25" transform="translate(0 0)" fill="#30bfa7"/>
        <path id="パス_42" data-name="パス 42" d="M398.634,287a12.5,12.5,0,1,1,8.838-3.661A12.415,12.415,0,0,1,398.634,287Zm-9.22-11.157a.627.627,0,0,0-.614.757,9.993,9.993,0,0,0,7.11,7.58.625.625,0,0,0,.558-.112.626.626,0,0,0,.238-.517l-.138-3.323a.627.627,0,0,0-.342-.533,6.094,6.094,0,0,1-1.913-1.547l-1.465-1.753c-.053-.064-.107-.13-.158-.2a.627.627,0,0,0-.467-.239l-2.783-.116Zm18.44,0h-.027l-2.783.116a.627.627,0,0,0-.467.239c-.05.065-.1.131-.158.2l-1.464,1.753a6.1,6.1,0,0,1-1.913,1.547.627.627,0,0,0-.342.533l-.138,3.323a.628.628,0,0,0,.627.653.618.618,0,0,0,.169-.023,9.993,9.993,0,0,0,7.11-7.58.627.627,0,0,0-.613-.757Zm-9.22-11.395a10.053,10.053,0,0,0-9.493,6.735.628.628,0,0,0,.592.833h.026l2.569-.107a.619.619,0,0,0,.3-.093,5.026,5.026,0,0,1,2.636-.6H402a5.024,5.024,0,0,1,2.635.6.619.619,0,0,0,.3.093l2.569.107h.026a.628.628,0,0,0,.592-.833A10.053,10.053,0,0,0,398.634,264.448Z" transform="translate(-373.634 -255.333)" fill="#fff"/>
        <g id="グループ_66" data-name="グループ 66" transform="translate(8.835 34.081)">
          <path id="パス_43" data-name="パス 43" d="M386.151,303.727l1.147-1.147-2.456-2.456h6.677V298.5h-6.677l2.456-2.456-1.147-1.148-4.415,4.415Z" transform="translate(-381.735 -294.897)" fill="#fff"/>
          <rect id="長方形_45" data-name="長方形 45" width="2.559" height="1.624" transform="translate(11.169 3.603)" fill="#fff"/>
          <rect id="長方形_46" data-name="長方形 46" width="1.348" height="1.624" transform="translate(15.233 3.603)" fill="#fff"/>
        </g>
      </g>
    </g>
    <text id="左ハンドル" transform="translate(117 675)" fill="#30bfa7" font-size="12" font-family="HiraKakuPro-W3, Hiragino Kaku Gothic Pro"><tspan x="-29.76" y="0">左ハンドル</tspan></text>
  </g>
</svg>
