<svg xmlns="http://www.w3.org/2000/svg" width="20" height="18.333" viewBox="0 0 20 18.333">
  <path id="iconmonstr-speech-bubble-4" d="M10,2.667c4.595,0,8.333,2.993,8.333,6.672,0,4.1-4.287,6.634-8.258,6.634a14.209,14.209,0,0,1-3.662-.537,11.239,11.239,0,0,1-3.56,1.517,7.8,7.8,0,0,0,.5-3.554,5.868,5.868,0,0,1-1.687-4.06C1.667,5.66,5.4,2.667,10,2.667ZM10,1C4.718,1,0,4.522,0,9.339a7.343,7.343,0,0,0,1.706,4.687A13.093,13.093,0,0,1,.045,19.333a24,24,0,0,0,6.648-2.113,14.294,14.294,0,0,0,3.382.419c5.9,0,9.925-4.031,9.925-8.3C20,4.5,15.249,1,10,1ZM7.083,9.333a1.25,1.25,0,1,1-1.25-1.25A1.249,1.249,0,0,1,7.083,9.333ZM10,8.083a1.25,1.25,0,1,0,1.25,1.25A1.25,1.25,0,0,0,10,8.083Zm4.166,0a1.25,1.25,0,1,0,1.25,1.25A1.25,1.25,0,0,0,14.166,8.083Z" transform="translate(0 -1)" fill="#30bfa7"/>
</svg>
